<svg id="Layer_1" fill='#C9B26D' height="512" viewBox="0 0 512 512" width="512" xmlns="http://www.w3.org/2000/svg" data-name="Layer 1"><path d="m256 0c141.385 0 256 114.615 256 256s-114.615 256-256 256-256-114.615-256-256 114.615-256 256-256zm-55.46 325.079-5.125.631a320.806 320.806 0 0 0 13.414 49.365c2.562 7.056 5.375 13.939 8.389 20.506l6.3-4.707a9.759 9.759 0 0 0 3.482-11.031l-15.85-48.038a9.806 9.806 0 0 0 -10.609-6.726zm16.678-208.64c-3.014 6.546-5.827 13.446-8.389 20.494a320.713 320.713 0 0 0 -13.414 49.367l5.125.631a9.81 9.81 0 0 0 10.609-6.726l15.851-48.049a9.766 9.766 0 0 0 -3.483-11.028l-6.3-4.689zm-97.687 61.544c-8.858 23.46-13.538 50.441-13.538 78.018s4.68 54.558 13.538 78.021a159.534 159.534 0 0 0 16.893 33.065 117.917 117.917 0 0 0 23.6 25.952c.174.144.351.28.513.43h.006a49.152 49.152 0 0 0 42.426 11.568 9.508 9.508 0 0 0 3.963-1.772l2.094-1.562c-3.462-7.408-6.688-15.207-9.595-23.216a331.476 331.476 0 0 1 -13.962-51.551l-8.711 1.064a11.978 11.978 0 0 1 -12.474-6.874c-17.8-37.741-17.8-92.517 0-130.249a11.987 11.987 0 0 1 12.474-6.877l8.708 1.068a331.951 331.951 0 0 1 13.962-51.56c2.907-7.991 6.133-15.805 9.595-23.207l-2.1-1.562a9.354 9.354 0 0 0 -3.955-1.77 48.407 48.407 0 0 0 -9.624-.973 49.251 49.251 0 0 0 -32.8 12.532c-.168.148-.34.3-.513.443a117.636 117.636 0 0 0 -23.6 25.946 159.584 159.584 0 0 0 -16.893 33.062zm279.625 22.552h-143.956l68.4 68.411a5.235 5.235 0 0 0 7.375 0l68.4-68.4c-.074-.007-.142-.012-.219-.012zm-151.106 6.988v93.167l46.576-46.582zm151.106 103.95a6.836 6.836 0 0 0 2.858-.631l-49.4-49.4-14.569 14.569a15.224 15.224 0 0 1 -21.512 0l-14.833-14.835-49.666 49.666a6.873 6.873 0 0 0 2.857.631zm6.85-10.783v-92.636l-46.313 46.322z" fill-rule="evenodd"/></svg>