<svg id="Layer_1" fill='#C9B26D' height="512" viewBox="0 0 512 512" width="512" xmlns="http://www.w3.org/2000/svg" data-name="Layer 1"><path d="m256 0c141.385 0 256 114.615 256 256s-114.615 256-256 256-256-114.615-256-256 114.615-256 256-256zm126.44 158.4-124.379-57.943a4.874 4.874 0 0 0 -4.12 0l-124.379 57.943a4.881 4.881 0 0 0 -2.811 4.084c-6.074 89.276 11.11 204.977 127.518 249.2a4.9 4.9 0 0 0 3.461 0c116.411-44.227 133.595-159.928 127.518-249.2a4.877 4.877 0 0 0 -2.808-4.084zm-126.44 9.915a82.566 82.566 0 1 0 82.564 82.567 82.659 82.659 0 0 0 -82.564-82.567zm0 155.385a72.61 72.61 0 0 0 51.974-21.869 74.447 74.447 0 0 0 -2.456-9.831l-31.5-18.819-13.789 23.889a4.878 4.878 0 0 1 -8.448 0l-13.789-23.889-31.508 18.819a75.354 75.354 0 0 0 -2.458 9.825 72.619 72.619 0 0 0 51.974 21.875zm59.81-31.335a72.814 72.814 0 1 0 -119.619 0 52.369 52.369 0 0 1 1.785-5.459 4.874 4.874 0 0 1 2.024-2.392l37.228-22.24a4.874 4.874 0 0 1 6.72 1.747l12.052 20.863 12.047-20.863a4.878 4.878 0 0 1 6.724-1.747l37.224 22.24a4.871 4.871 0 0 1 2.03 2.388 50.985 50.985 0 0 1 1.785 5.459zm-59.81-85.494a26.983 26.983 0 1 0 26.986 26.982 27.011 27.011 0 0 0 -26.986-26.982zm0 44.215a17.233 17.233 0 1 0 -17.232-17.233 17.252 17.252 0 0 0 17.232 17.233z" fill-rule="evenodd"/></svg>