<svg height="512" fill='#C9B26D' viewBox="0 0 64 64" width="512" xmlns="http://www.w3.org/2000/svg"><g id="Layer_26" data-name="Layer 26"><path d="m32 3.4a28.59 28.59 0 0 0 -28.6 28.6 28.59 28.59 0 0 0 28.6 28.6 28.59 28.59 0 0 0 28.6-28.6 28.59 28.59 0 0 0 -28.6-28.6zm16.79 43.2h-33.58a3.64 3.64 0 0 1 -3.63-3.6v-21.16l7.78 8.5a.6.6 0 0 0 .44.19h8.89v3.54a.6.6 0 0 0 .6.6h5.42a.6.6 0 0 0 .6-.6v-3.54h8.89a.6.6 0 0 0 .44-.19l7.78-8.5v21.16a3.64 3.64 0 0 1 -3.63 3.6zm-18.9-13.13v-5.94h4.22v5.94zm14-4.14h-8.58v-2.4a.6.6 0 0 0 -.6-.6h-5.42a.6.6 0 0 0 -.6.6v2.4h-8.62l-8.47-9.25a2.44 2.44 0 0 1 2.4-2.31h36.81a1.61 1.61 0 0 1 1.61 1.61v.69zm-15.77-17.93h7.76a2.77 2.77 0 0 1 2.76 2.77v2.4h-13.28v-2.4a2.77 2.77 0 0 1 2.76-2.77z"/></g></svg>