<svg height="512" fill='#C9B26D' viewBox="0 0 512 512" width="512" xmlns="http://www.w3.org/2000/svg"><g id="Layer_2" data-name="Layer 2"><g id="video_camera"><path d="m256 0c-141.38 0-256 114.62-256 256s114.62 256 256 256 256-114.62 256-256-114.62-256-256-256zm23.81 138.7a51.26 51.26 0 1 1 -51.26 51.3 51.25 51.25 0 0 1 51.26-51.3zm-108.87 22.3a40.12 40.12 0 1 1 -40.12 40.11 40.11 40.11 0 0 1 40.12-40.11zm163.45 191.35a21 21 0 0 1 -20.95 20.95h-182.44a21 21 0 0 1 -21-20.95v-84.49a21 21 0 0 1 20.95-21h182.49a21 21 0 0 1 20.95 21zm67.61-11.35a21 21 0 0 1 -29.51 19.12l-30.12-13.49v-73l30.12-13.49a21 21 0 0 1 29.51 19.11z"/></g></g></svg>