<svg id="Layer_1" fill='#C9B26D' height="512" viewBox="0 0 512 512" width="512" xmlns="http://www.w3.org/2000/svg" data-name="Layer 1"><path d="m256 0c141.385 0 256 114.615 256 256s-114.615 256-256 256-256-114.615-256-256 114.615-256 256-256zm82.816 196.792a5.329 5.329 0 0 1 -.941 1.178h45.725l-.059-12.632c-2.64-5.673-7.97-9.665-16.253-12.2-5.127-1.38-9.4-2.616-12.744-3.6l-15.732 27.256zm-25.979-59.14a22.152 22.152 0 1 0 22.152-22.164 22.185 22.185 0 0 0 -22.152 22.164zm-156.626 0a22.153 22.153 0 1 0 22.153-22.164 22.185 22.185 0 0 0 -22.153 22.164zm245.5 241.92a10.305 10.305 0 0 0 9.411-6.148h-17.16l.034 6.148zm-116.767 16.94h98.736l-.135-27.111c-2.64-5.667-7.97-9.666-16.253-12.2-11.042-2.978-21.2-5.649-32.978-8.093-11.793 2.444-21.938 5.115-32.981 8.093-8.283 2.53-13.612 6.529-16.252 12.2l-.136 27.111zm-47.574-16.94h37.26l.033-6.148h-37.323l.031 6.148zm-109.05 16.94h98.735l-.135-27.112c-2.641-5.667-7.97-9.666-16.25-12.2-11.043-2.978-21.2-5.649-32.981-8.093-11.791 2.444-21.939 5.115-32.981 8.093-8.283 2.53-13.613 6.529-16.25 12.2l-.138 27.111zm-18.032-16.94h7.712l.034-6.148h-17.157a10.308 10.308 0 0 0 9.411 6.148zm0-171.2a10.3 10.3 0 0 0 -10.288 10.285v144.365h20.053c4.139-7.363 11.426-12.668 21.708-15.793.055-.015.1-.034.156-.046 11.571-3.115 22.172-5.909 34.732-8.476a5.387 5.387 0 0 1 2.079 0c12.552 2.567 23.153 5.358 34.729 8.476.052.012.105.031.157.046 10.282 3.125 17.568 8.43 21.711 15.793h41.353c4.14-7.363 11.426-12.668 21.708-15.793.053-.015.1-.034.157-.046 11.57-3.115 22.171-5.909 34.729-8.476a5.4 5.4 0 0 1 2.082 0c12.551 2.567 23.153 5.358 34.729 8.476.052.012.1.031.156.046 10.289 3.125 17.575 8.43 21.718 15.8.049 0 .1-.009.16-.009h19.883v-144.363a10.3 10.3 0 0 0 -10.288-10.289zm68.076 124.963a29.956 29.956 0 1 0 -29.952-29.951 29.986 29.986 0 0 0 29.952 29.951zm0-49.51a19.556 19.556 0 1 0 19.552 19.559 19.582 19.582 0 0 0 -19.552-19.559zm156.625 49.51a29.956 29.956 0 1 0 -29.951-29.951 29.982 29.982 0 0 0 29.951 29.951zm0-49.51a19.556 19.556 0 1 0 19.552 19.559 19.579 19.579 0 0 0 -19.552-19.559zm-206.531-98.487-.058 12.632h45.725a5.508 5.508 0 0 1 -.941-1.178l-15.732-27.256c-3.4 1.015-7.611 2.217-12.744 3.6-8.283 2.533-13.613 6.525-16.25 12.2zm53.736 11.454a5.435 5.435 0 0 1 -.945 1.178h45.729l-.058-12.632c-2.641-5.673-7.97-9.665-16.25-12.2-5.13-1.38-9.405-2.616-12.748-3.6l-15.728 27.256zm102.887-11.454-.059 12.632h45.729a5.435 5.435 0 0 1 -.945-1.178l-15.728-27.256c-3.407 1.009-7.611 2.217-12.745 3.6-8.283 2.537-13.612 6.529-16.252 12.202z" fill-rule="evenodd"/></svg>