<svg height="512" fill='#C9B26D' viewBox="0 0 152 152" width="512" xmlns="http://www.w3.org/2000/svg"><g id="Layer_2" data-name="Layer 2"><g id="_13.Notification_Bell" data-name="13.Notification Bell"><path id="icon" d="m76 0a76 76 0 0 0 0 152c2.55 0 5.07-.13 7.56-.37a76 76 0 0 0 -7.56-151.63zm0 121a9.24 9.24 0 0 1 -9.23-9.23h18.46a9.24 9.24 0 0 1 -9.23 9.23zm36.92-13.84h-73.84v-4.62l9.23-9.23v-23.09c0-14.18 7.54-26 20.77-29.15v-3.15a6.92 6.92 0 0 1 13.84 0v3.15c13.23 3.14 20.77 15 20.77 29.15v23.09l9.23 9.23z"/></g></g></svg>