<svg id="Layer_1" fill='#C9B26D' enable-background="new 0 0 512 512" height="512" viewBox="0 0 512 512" width="512" xmlns="http://www.w3.org/2000/svg"><path clip-rule="evenodd" d="m256 0c-141 0-256 115-256 256s115 256 256 256 256-115 256-256-115-256-256-256zm162.5 359.354c0 3.439-2.909 6.348-6.349 6.348h-312.303c-3.439 0-6.349-2.909-6.349-6.348v-130.513h325v130.513zm0-153.729h-325v-52.979c0-3.439 2.909-6.348 6.349-6.348h312.303c3.439 0 6.349 2.909 6.349 6.348v52.979zm-289.663 103.972c0-6.413 5.196-11.607 11.606-11.607h53.59c6.413 0 11.605 5.194 11.605 11.607 0 6.405-5.192 11.607-11.605 11.607h-53.59c-6.411 0-11.606-5.202-11.606-11.607z" fill-rule="evenodd"/></svg>