<svg id="Layer_1" fill='#C9B26D' enable-background="new 0 0 512 512" height="512" viewBox="0 0 512 512" width="512" xmlns="http://www.w3.org/2000/svg"><path clip-rule="evenodd" d="m256 0c141.385 0 256 114.615 256 256s-114.615 256-256 256-256-114.615-256-256 114.615-256 256-256zm-65.015 261.757-12.811 12.814c-4.542 4.543-4.542 11.912 0 16.456 2.19 2.191 5.131 3.411 8.228 3.411 3.093 0 6.038-1.224 8.225-3.41l32.677-32.677c4.544-4.544 4.544-11.912 0-16.456l-32.677-32.677c-4.544-4.544-11.911-4.546-16.454 0-4.542 4.545-4.543 11.912 0 16.456l12.811 12.814h-88.58c-6.424 0-11.636 5.211-11.636 11.635 0 6.425 5.211 11.636 11.636 11.636h88.581zm47.352 124.982v16.197c0 12.986 6.469 24.201 17.715 30.695 5.417 3.127 11.453 4.87 17.722 4.87 6.268 0 12.305-1.743 17.721-4.87l72.017-41.579c11.249-6.494 17.716-17.704 17.716-30.692v-212.416c0-19.544-15.892-35.444-35.438-35.444h-158.608c-19.546 0-35.446 15.898-35.446 35.444v44.778c0 6.426 5.209 11.636 11.636 11.636s11.638-5.208 11.638-11.636v-44.778c0-6.713 5.46-12.169 12.172-12.169h138.982l-70.106 40.48c-11.249 6.495-17.721 17.706-17.721 30.695v155.515h-51.154c-6.711 0-12.172-5.455-12.172-12.166v-39.257c0-6.427-5.211-11.635-11.638-11.635s-11.636 5.209-11.636 11.635v39.257c0 19.546 15.901 35.44 35.446 35.44z" fill-rule="evenodd"/></svg>