<svg fill='#C9B26D' clip-rule="evenodd" fill-rule="evenodd" height="512" image-rendering="optimizeQuality" shape-rendering="geometricPrecision" text-rendering="geometricPrecision" viewBox="0 0 2667 2667" width="512" xmlns="http://www.w3.org/2000/svg"><g id="Layer_x0020_1"><circle cx="1333" cy="1333" r="1333" stroke="#fefefe" stroke-width="7.874"/><g id="_382594920"><g id="_382594320"><path d="m770 2143c-54 0-105-21-143-59-79-79-79-207 0-286l823-823c14-14 21-32 19-51-12-107 24-213 98-289 68-72 160-111 259-111 23 0 47 2 69 7 6 1 11 5 13 11s0 13-4 17l-152 152 248 248 152-152c4-5 11-6 16-4 6 1 11 6 12 12 23 118-14 239-99 324-68 68-158 106-255 106-13 0-26-1-40-2-18-3-37 5-51 18l-823 823c-38 38-88 59-142 59zm1056-1586c-89 0-173 36-235 101-67 69-100 165-89 263 3 28-7 57-28 78l-823 823c-66 66-66 172 0 238 31 32 74 49 119 49s87-17 119-49l822-822c21-21 51-32 79-29 12 2 24 2 36 2 88 0 170-34 231-95 70-70 104-166 95-262l-140 140c-7 6-17 6-24 0l-271-272c-3-3-5-7-5-11 0-5 2-9 5-12l140-140c-10-1-21-2-31-2z" fill="#fefefe"/></g><g id="_382594392"><path d="m819 1986c-25 0-48-10-66-28-37-37-37-97 0-133 18-18 41-28 66-28 26 0 49 10 67 28 37 36 37 96 0 133-18 18-41 28-67 28zm0-155c-16 0-31 6-43 17-23 24-23 63 0 86 12 12 27 18 43 18 17 0 32-6 43-18 24-23 24-62 0-86-11-11-26-17-43-17z" fill="#fefefe"/></g><g id="_382594368"><path d="m1087 1750c-5 0-9-1-12-4l-110-110c-6-7-6-17 0-24l385-384c6-7 17-7 23 0l110 110c3 3 5 7 5 11 0 5-2 9-5 12l-385 385c-3 3-7 4-11 4zm-87-126 87 86 360-361-86-86z" fill="#fefefe"/></g><g id="_382595016"><path d="m1357 1480c-4 0-9-2-12-5l-109-109c-7-7-7-17 0-24 6-6 17-6 23 0l110 110c6 6 6 17 0 23-4 3-8 5-12 5z" fill="#fefefe"/></g><g id="_382595376"><path d="m1201 1636c-5 0-9-1-12-4l-110-110c-6-7-6-17 0-24 7-6 17-6 24 0l109 110c7 6 7 17 0 24-3 3-7 4-11 4z" fill="#fefefe"/></g><g id="_382595304"><path d="m1072 1394c-5 0-9-2-12-5l-129-128c-14-14-32-21-51-19-107 12-213-24-289-98-89-85-128-208-104-329 1-6 5-11 11-12 6-2 13-1 17 4l152 152 247-248-151-152c-5-4-6-11-4-17 1-6 6-10 12-11 118-23 239 14 324 99 78 77 116 185 104 294-3 19 4 38 18 52l128 128c7 6 7 17 0 23-6 7-17 7-23 0l-128-127c-21-22-32-50-29-79 11-100-23-197-93-268-70-69-166-103-262-94l140 140c6 6 6 17 0 23l-272 272c-3 3-7 5-11 5-5 0-9-2-12-5l-140-140c-9 99 26 196 99 266 69 67 165 100 263 89 28-3 57 7 78 28l128 129c7 6 7 17 0 23-3 3-7 5-11 5z" fill="#fefefe"/></g><g id="_382595112"><path d="m1897 2143c-54 0-105-21-143-59l-432-433c-7-7-7-17 0-24 6-6 17-6 23 0l433 433c32 32 74 49 119 49s87-17 119-49 49-74 49-119-17-87-49-119l-433-433c-6-6-6-17 0-23 7-7 17-7 24 0l433 432c38 38 59 89 59 143s-21 105-59 143-89 59-143 59z" fill="#fefefe"/></g><g id="_382595088"><path d="m1847 1986c-25 0-48-10-66-28-37-37-37-97 0-133 18-18 41-28 66-28s49 10 67 28 27 41 27 66c0 26-9 49-27 67s-42 28-67 28zm0-155c-16 0-31 6-43 17-23 24-23 63 0 86 12 12 27 18 43 18 17 0 32-6 43-18 12-11 18-26 18-43 0-16-6-31-18-43-11-11-26-17-43-17z" fill="#fefefe"/></g><g id="_382595160"><path d="m1580 1750c-4 0-8-1-12-4l-170-171c-7-7-7-17 0-24 6-6 17-6 23 0l159 159 86-86-159-159c-6-6-6-17 0-23 7-7 17-7 24 0l171 170c3 4 4 8 4 12 0 5-1 9-4 12l-110 110c-3 3-8 4-12 4z" fill="#fefefe"/></g><g id="_382595736"><path d="m1466 1636c-4 0-8-1-12-4-6-7-6-18 0-24l110-110c6-6 17-6 23 0 7 7 7 17 0 24l-109 110c-3 3-8 4-12 4z" fill="#fefefe"/></g></g></g></svg>