<svg fill='#C9B26D' xmlns="http://www.w3.org/2000/svg" version="1.1" xmlns:xlink="http://www.w3.org/1999/xlink" xmlns:svgjs="http://svgjs.com/svgjs" width="512" height="512" x="0" y="0" viewBox="0 0 511.363 511.363" style="enable-background:new 0 0 512 512" xml:space="preserve" class=""><circle r="255.6815" cx="255.6815" cy="255.6815" fill="#aeee0c" shape="circle"></circle><g transform="matrix(0.7,0,0,0.7,76.70445098876954,76.70445556640627)"><path d="M413.408 423.981h-90.973v9.908l-66.753 51.331-66.753-51.331v-9.908H97.956c-41.682 0-75.602 33.865-75.689 75.527l.263 11.855h466.566v-11.694c0-41.734-33.953-75.688-75.688-75.688zM394.894 225.996l.097-23.296c-11.305 9.998-26.146 16.085-42.389 16.085H331.81c10.041 9.836 22.603 18.79 35.178 19.762 9.612.745 18.784-3.375 27.906-12.551z" fill="#000000" data-original="#000000" class=""></path><path d="m208.963 394.562 9.966 3.55v21.002l36.753 28.262 36.753-28.262v-21.002l9.966-3.55c60.991-21.729 87.804-49.322 92.549-95.237l1.391-13.458h18.538c10.744 0 19.485-8.741 19.485-19.486 0-10.256-7.97-18.667-18.039-19.413-14.238 14.384-29.989 21.672-46.961 21.672-1.587 0-3.181-.063-4.79-.19-18.792-1.484-37.598-11.709-55.896-30.39a167.92 167.92 0 0 1-7.753-8.491c-11.172 16.45-11.553 16.954-11.776 17.25-16.835 22.271-43.508 35.96-75.105 38.545-3.572.292-7.177.437-10.797.437-25.313 0-51.441-7.055-73.133-19.943l-31.915-18.963h-2.786c-10.745 0-19.486 8.741-19.486 19.486s8.741 19.486 19.486 19.486h20.436l1.391 13.458c4.769 46.132 31.343 73.724 91.723 95.237zm31.024-80.846c0 8.359 6.801 15.16 15.16 15.16s15.159-6.801 15.159-15.16h30c0 24.901-20.258 45.16-45.159 45.16s-45.16-20.258-45.16-45.16z" fill="#000000" data-original="#000000" class=""></path><path d="M211.598 255.465c22.875-1.872 41.859-11.3 53.483-26.556.661-.951 3.366-4.923 6.902-10.124H159.125c-15.966 0-30.574-5.883-41.804-15.578v20.153l28.119 16.708c19.564 11.624 43.679 17.239 66.158 15.397zM126.532 164.625c4.256 13.966 17.253 24.16 32.593 24.16h193.478c15.294 0 28.258-10.132 32.553-24.033-87.943-31.402-170.713-31.443-258.624-.127z" fill="#000000" data-original="#000000" class=""></path><path d="M116.25 136.421c47.484-16.948 93.211-25.205 139.406-25.205h.027c46.274.003 92.082 8.292 139.664 25.302l32.296-49-65.973-60.112L255.682 0l-106.16 27.451-65.836 57.345zm123.896-58.496V49.859h30v28.066z" fill="#000000" data-original="#000000" class=""></path></g></svg>