<svg fill='#C9B26D' id="Lingkaran_Glyph" height="512" viewBox="0 0 64 64" width="512" xmlns="http://www.w3.org/2000/svg" data-name="Lingkaran Glyph"><path d="m32 0a32 32 0 1 0 32 32 32.004 32.004 0 0 0 -32-32zm-5.67 46.72a3.36344 3.36344 0 0 1 -2.44 1.09h-.07a3.416 3.416 0 0 1 -3.43-3.5 3.36336 3.36336 0 0 1 1.09-2.44l5.35-5.12 4.38 4.72zm16.36.15a3.13027 3.13027 0 0 1 -2.25.94h-.05a3.17474 3.17474 0 0 1 -2.28-1.01l-11.53-12.41a6.552 6.552 0 0 1 -7.13-1.44l-7.24-7.24a.70016.70016 0 0 1 0-1l1.57-1.58 7.74 7.74a.71418.71418 0 0 0 1.01-1.01l-7.73-7.73 1.06-1.08 7.74 7.74a.67649.67649 0 0 0 .5.22.661.661 0 0 0 .5-.22.695.695 0 0 0 0-1.01l-7.73-7.73 1.07-1.07 7.74 7.74a.70019.70019 0 0 0 1 0 .71214.71214 0 0 0 0-1.01l-7.73-7.73 1.57-1.58a.71229.71229 0 0 1 1.01 0l7.23 7.23a6.58839 6.58839 0 0 1 1.45 7.14l12.4 11.53a3.16973 3.16973 0 0 1 1.01 2.27 3.08405 3.08405 0 0 1 -.93 2.3zm5.93-17.11c-2.77 2.75995-6.49 3.98-9.42 3.12l-2.14 2.31-4.2-3.9 2.46-2.29c-.86-2.93.36-6.64 3.12-9.42 3.75-3.73 9.07-4.49 11.87-1.68995 2.8 2.80995 2.04 8.12995-1.69 11.86995z" /></svg>