<svg id="Layer_1" fill='#C9B26D' height="512" viewBox="0 0 512 512" width="512" xmlns="http://www.w3.org/2000/svg" data-name="Layer 1"><path d="m256 0c141.385 0 256 114.615 256 256s-114.615 256-256 256-256-114.615-256-256 114.615-256 256-256zm129.017 373.216v-121.041h-28.217v6.625a5 5 0 0 1 -5 5h-38.713a5 5 0 0 1 -5-5v-6.627h-104.174v6.627a5 5 0 0 1 -5 5h-38.713a5 5 0 0 1 -5-5v-6.627h-28.221v121.043a10.14 10.14 0 0 0 10.121 10.127h237.794a10.14 10.14 0 0 0 10.123-10.127zm-219.817-119.416h28.712v-13.256h-28.712zm152.885 0h28.715v-13.256h-28.715zm87.915-11.626v-46.233a18.768 18.768 0 0 0 -18.745-18.748h-262.513a18.765 18.765 0 0 0 -18.742 18.748v46.233h49.2v-6.63a5 5 0 0 1 5-5h38.71a5 5 0 0 1 5 5v6.63h104.177v-6.63a5 5 0 0 1 5-5h38.713a5 5 0 0 1 5 5v6.63zm-150 28.934a48.043 48.043 0 1 0 48.044 48.041 48.1 48.1 0 0 0 -48.044-48.041zm0 86.084a38.041 38.041 0 1 0 -38.037-38.043 38.089 38.089 0 0 0 38.037 38.043zm17.876-40.263a5.01 5.01 0 0 0 -4.482-2.78h-16.683l13.47-17.657a5 5 0 1 0 -7.951-6.068l-19.6 25.691a5 5 0 0 0 3.98 8.034h16.675l-13.467 17.663a5 5 0 1 0 7.948 6.061l19.6-25.693a5.02 5.02 0 0 0 .508-5.251zm87.437 41.859h-43.264a5 5 0 1 0 0 10h43.262a5 5 0 1 0 0-10zm-147.813-191.588v-15.82a12.735 12.735 0 0 1 12.722-12.719h59.547a12.735 12.735 0 0 1 12.722 12.719v15.82h10v-15.82a22.748 22.748 0 0 0 -22.722-22.719h-59.544a22.745 22.745 0 0 0 -22.719 22.719v15.82z" fill-rule="evenodd"/></svg>