<svg id="Layer_1" fill='#C9B26D' height="512" viewBox="0 0 512 512" width="512" xmlns="http://www.w3.org/2000/svg" data-name="Layer 1"><path d="m256 0c141.385 0 256 114.615 256 256s-114.615 256-256 256-256-114.615-256-256 114.615-256 256-256zm70.149 156.445h-30.269a11.408 11.408 0 0 0 -6.476 2.011 16.387 16.387 0 0 0 -9.054-2.761c-.03 0-.088 0-.147 0l-78 .747a15.575 15.575 0 0 0 -15.208 12.292l-12.195 55.979a19.691 19.691 0 0 0 19.252 23.9h27.631a33.035 33.035 0 0 1 -.674 4.469 22.533 22.533 0 0 1 -5.655 10.452 6.644 6.644 0 0 0 -1.465 2.584 44.2 44.2 0 0 0 4.542 34.556 17.528 17.528 0 0 0 15.208 8.445 17.054 17.054 0 0 0 7.266-1.582 6.272 6.272 0 0 0 3.517-4.7 91.735 91.735 0 0 1 6.212-22.073 5.4 5.4 0 0 0 .322-.937c.82-2.268 7.238-11.05 17.317-21.845 9.582-10.32 16.351-15.875 19.457-17.762a11.492 11.492 0 0 0 8.146 3.39h30.269a11.555 11.555 0 0 0 11.545-11.528v-64.109a11.555 11.555 0 0 0 -11.545-11.528zm-65.988 92c12.893-13.66 19.984-18.671 24.2-20.423v-56.741c-.029-.073-.058-.144-.088-.217a4.168 4.168 0 0 0 -3.926-2.945h-.03l-78 .747a3.162 3.162 0 0 0 -3.194 2.518l-12.19 55.975a7.272 7.272 0 0 0 7.121 8.837h28.6a11.538 11.538 0 0 1 11.516 11.961 46.492 46.492 0 0 1 -1 7.528.232.232 0 0 0 -.03.138 35.176 35.176 0 0 1 -7.647 15.029 31.793 31.793 0 0 0 3.633 23.526.6.6 0 0 1 .117.176 5 5 0 0 0 3.634 2.074 105.066 105.066 0 0 1 6.183-20.359c2.461-7.77 17.932-24.461 21.1-27.822zm65.109-17.258v-62.321h-28.482v62.323zm71.086-118.614h-280.712a18.65 18.65 0 0 0 -18.636 18.633v188.811a18.647 18.647 0 0 0 18.636 18.633h101.677l33.288 57.669a6.232 6.232 0 0 0 10.783 0l33.286-57.669h101.678a18.647 18.647 0 0 0 18.636-18.633v-188.809a18.65 18.65 0 0 0 -18.636-18.633z" fill-rule="evenodd"/></svg>