<svg id="Circular_glyph" fill='#C9B26D' height="512" viewBox="0 0 64 64" width="512" xmlns="http://www.w3.org/2000/svg" data-name="Circular glyph"><path d="m32 0a32 32 0 1 0 32 32 32.004 32.004 0 0 0 -32-32zm.11 13.81a3.395 3.395 0 1 1 -3.39 3.4 3.40143 3.40143 0 0 1 3.39-3.4zm-16.71 3.67a3.39 3.39 0 1 1 -3.4 3.39 3.38645 3.38645 0 0 1 3.4-3.39zm36.58 22.69a4.033 4.033 0 0 1 -4.03 4.04h-4.61a1.09769 1.09769 0 0 0 -.99.64l-2.11 4.55a1.35262 1.35262 0 0 1 -2.51-1l2.08-6.19a3.08741 3.08741 0 0 1 2.93-2.11h2.86v-3.7l2.88-3.67-.59-.47-2.68 3.4v1.35h-12.46v12.42a.75007.75007 0 1 1 -1.5 0v-12.42h-12.1v-1.13h-.19l-2.85-3.62-.59.47 2.88 3.67v3.7h2.86a3.08741 3.08741 0 0 1 2.93 2.11l2.08 6.19a1.35262 1.35262 0 0 1 -2.51 1l-2.11-4.55a1.09769 1.09769 0 0 0 -.99005-.64h-4.60995a4.033 4.033 0 0 1 -4.03-4.04v-10.62a2.708 2.708 0 0 1 3.38-2.62 2.85786 2.85786 0 0 1 1.37.87l3.77 4.27a2.34284 2.34284 0 0 0 1.78.8h3.25a1.70713 1.70713 0 0 1 1.7 1.71v.93h.76v-.93a2.45824 2.45824 0 0 0 -2.46-2.46h-.24v-5.06a4.38938 4.38938 0 0 1 4.39-4.39h4.56a4.38938 4.38938 0 0 1 4.39 4.39v5.06h-.24a2.45824 2.45824 0 0 0 -2.46 2.46v.93h.76v-.93a1.70713 1.70713 0 0 1 1.7-1.71h3.25a2.34284 2.34284 0 0 0 1.78-.8l3.77-4.27a2.85786 2.85786 0 0 1 1.37-.87 2.708 2.708 0 0 1 3.38 2.62zm-3.38-15.91a3.39 3.39 0 1 1 3.4-3.39 3.39286 3.39286 0 0 1 -3.4 3.39z"/></svg>