<svg id="Circular_glyph" fill='#C9B26D' height="512" viewBox="0 0 64 64" width="512" xmlns="http://www.w3.org/2000/svg" data-name="Circular glyph"><path d="m32 0a32 32 0 1 0 32 32 32.004 32.004 0 0 0 -32-32zm-3.81 13.47h.22a1.71425 1.71425 0 0 0 1.6-1.17.83933.83933 0 0 1 .15-.3h3.73a1.93544 1.93544 0 0 1 1.94 1.94v2.1c-.21-.02-.42-.05-.63-.07-.11-.01-.23-.03-.34-.04-.23-.03-.46-.07-.7-.11-.6-.1-1.24-.22-1.92-.38-.17-.04-.34-.07-.51-.1a9.31275 9.31275 0 0 0 -1.06-.15 5.08008 5.08008 0 0 0 -.55-.04c-.24-.00995-.49-.02-.74-.02-.39 0-.8.02-1.2.05zm-.02 3.36c.07-.00995.16-.00995.23-.02a11.44171 11.44171 0 0 1 3.46.23c.7.17 1.37.3 1.99.4.36.06.69.11 1.02.15.03 0 .05.01.07.01a1.95083 1.95083 0 0 0 .34.03 5.359 5.359 0 0 0 .55.05v1.48a3.80921 3.80921 0 0 1 -3.71 3.83 3.64041 3.64041 0 0 1 -2.7-1.08 4.19233 4.19233 0 0 1 -1.25-2.95zm-9.52 20.66a5.67727 5.67727 0 0 0 2.88-4.09l.86-5.17a3.65262 3.65262 0 0 1 3.61-3.06h12a3.65262 3.65262 0 0 1 3.61 3.06l.86 5.17a5.67727 5.67727 0 0 0 2.88 4.09l.35.2a26.46293 26.46293 0 0 0 -2.24 3.14l-2.24-1.16a3.22965 3.22965 0 0 1 -1.45-1.45 12.32277 12.32277 0 0 1 -1.39-4.61.8222.8222 0 1 0 -1.64.12 13.83827 13.83827 0 0 0 1.57 5.24 4.8754 4.8754 0 0 0 2.16 2.17l1.6.82c-1.38.38-8.71 2.53-9.67 2.79-.69-.2-9.01-2.53-10.35-2.86l1.48-.75a4.9033 4.9033 0 0 0 2.16-2.16 13.95256 13.95256 0 0 0 1.57-5.25.8222.8222 0 1 0 -1.64-.12 12.32277 12.32277 0 0 1 -1.39 4.61 3.22965 3.22965 0 0 1 -1.45 1.45l-2.24 1.15a23.95847 23.95847 0 0 0 -2.26-3.13zm-5.09 4.78a1.8485 1.8485 0 0 1 .77-2.38l2.48-1.38a23.11449 23.11449 0 0 1 2.13 2.84 4.69623 4.69623 0 0 0 -3.73 1.97 1.8485 1.8485 0 0 1 -1.65-1.05zm22.85 7.73a2.474 2.474 0 0 1 -2.21 1.99l-15.67.01a3.01933 3.01933 0 0 1 -2.99-3.53l.48-2.94a3.28012 3.28012 0 0 1 .37-1.02 3.0738 3.0738 0 0 1 2.63-1.51 2.48886 2.48886 0 0 1 .47.04c1.67.26 5.52 1.3 9.27 2.37a7.59159 7.59159 0 0 0 -1.09 3.17.81352.81352 0 0 0 .76.88.14851.14851 0 0 0 .06.01.83606.83606 0 0 0 .83-.76 6.509 6.509 0 0 1 1.07-2.83c.6.17 3.58 1.05 4.31 1.28a2.454 2.454 0 0 1 1.71 2.84zm11.37.92a3.031 3.031 0 0 1 -2.31 1.07h-8.19a4.1063 4.1063 0 0 0 -1.96-6.36c.52-.15 8.45-2.48 9.19-2.59.02 0 .03-.01.05-.01a3.056 3.056 0 0 1 3.05 1.48 2.98717 2.98717 0 0 1 .37 1.02l.48 2.94a2.98926 2.98926 0 0 1 -.68 2.45zm2.66-8.66a1.8579 1.8579 0 0 1 -1.65 1.06 4.635 4.635 0 0 0 -3.71-1.97 26.69748 26.69748 0 0 1 2.09-2.85l2.5 1.39a1.83959 1.83959 0 0 1 .77 2.37z"/></svg>