<svg id="Layer_1" fill='#C9B26D' enable-background="new 0 0 512 512" height="512" viewBox="0 0 512 512" width="512" xmlns="http://www.w3.org/2000/svg"><path clip-rule="evenodd" d="m256 0c141.385 0 256 114.615 256 256s-114.615 256-256 256-256-114.615-256-256 114.615-256 256-256zm96.597 271.134c6.395 7.195 17.677 7.85 24.867 1.458 7.191-6.392 7.851-17.679 1.457-24.868-31.187-35.069-75.985-55.219-122.923-55.219-46.936 0-91.733 20.15-122.921 55.219-6.393 7.189-5.733 18.476 1.458 24.868 3.23 2.871 7.377 4.451 11.7 4.451 5.039 0 9.819-2.141 13.167-5.908 24.507-27.558 59.712-43.4 96.596-43.4 36.885-.001 72.094 15.841 96.599 43.399zm-48.305 47.069c3.349 4.167 8.389 6.582 13.734 6.582 4.017 0 7.897-1.367 11.029-3.883 7.55-6.076 8.764-17.219 2.693-24.769-18.535-23.062-46.16-36.33-75.751-36.33-29.59 0-57.213 13.271-75.75 36.33-6.069 7.55-4.856 18.699 2.695 24.769 7.551 6.063 18.696 4.853 24.763-2.699 11.828-14.719 29.405-23.169 48.291-23.169 18.89.001 36.465 8.457 48.296 23.169zm-48.294 8.908c-16.463 0-29.845 13.384-29.845 29.845 0 16.467 13.385 29.844 29.845 29.844 16.462 0 29.847-13.377 29.847-29.844 0-16.461-13.384-29.845-29.847-29.845zm-169.349-102.379c7.119 6.566 18.321 6.118 24.89-1.003 37.094-40.197 89.756-63.298 144.459-63.298 54.705 0 107.366 23.098 144.461 63.298 3.341 3.622 8.021 5.67 12.949 5.67 4.431 0 8.682-1.661 11.942-4.667 7.121-6.569 7.573-17.77 1.003-24.891-21.372-23.166-47.017-41.642-75.784-54.516-29.859-13.365-61.867-20.125-94.571-20.125-32.702 0-64.711 6.76-94.567 20.124-28.767 12.875-54.411 31.354-75.781 54.516-6.571 7.122-6.123 18.322.999 24.892z" fill-rule="evenodd"/></svg>