<svg height="512" viewBox="0 0 512 512" width="512" xmlns="http://www.w3.org/2000/svg"><g id="Layer_2" data-name="Layer 2"><g id="add_friend" data-name="add friend"><path d="m256 0c-141.38 0-256 114.62-256 256s114.62 256 256 256 256-114.62 256-256-114.62-256-256-256zm-34.71 131.49a53.43 53.43 0 1 1 -53.43 53.43 53.44 53.44 0 0 1 53.43-53.43zm100.3 217.3a31.73 31.73 0 0 1 -31.73 31.72h-137.13a31.72 31.72 0 0 1 -31.73-31.72v-21.4a75.11 75.11 0 0 1 75.11-75.11h50.37a75.11 75.11 0 0 1 75.11 75.11zm69.41-123.79a15.21 15.21 0 0 1 -15.2 15.2h-17.28v17.28a15.21 15.21 0 0 1 -30.41 0v-17.25h-17.28a15.2 15.2 0 0 1 -15.2-15.2 15.2 15.2 0 0 1 15.2-15.21h17.28v-17.28a15.21 15.21 0 0 1 30.41 0v17.28h17.28a15.21 15.21 0 0 1 15.2 15.18z"/></g></g></svg>