<svg height="512" viewBox="0 0 64 64" width="512" xmlns="http://www.w3.org/2000/svg"><g id="Layer_15" data-name="Layer 15"><path d="m32 3.5a28.5 28.5 0 1 0 28.5 28.5 28.54 28.54 0 0 0 -28.5-28.5zm-10.84 46.28h-4.16a.5.5 0 1 1 0-1h4.17a.5.5 0 0 1 0 1zm2.56-8.23a.49.49 0 0 1 -.46.3h-1.42v5.08a.5.5 0 0 1 -.5.5h-4.25a.5.5 0 0 1 -.5-.5v-5.08h-1.42a.49.49 0 0 1 -.46-.3.51.51 0 0 1 .09-.55l4.05-4.27a.52.52 0 0 1 .73 0l4 4.27a.49.49 0 0 1 .14.55zm0-10.48a.47.47 0 0 1 -.35.15.49.49 0 0 1 -.35-.15l-.35-.34v3.19a.5.5 0 0 1 -.5.5h-6.17a.5.5 0 0 1 -.5-.5v-3.19l-.34.34a.5.5 0 0 1 -.71 0 .5.5 0 0 1 0-.7l1.53-1.53v-1.7a.51.51 0 0 1 .5-.5.5.5 0 0 1 .5.5v.7l1.78-1.78a.51.51 0 0 1 .71 0l4.3 4.31a.48.48 0 0 1 -.04.7zm10.28 18.71h-4.13a.5.5 0 0 1 0-1h4.13a.5.5 0 0 1 0 1zm0-2.09h-4.13a.5.5 0 0 1 0-1h4.13a.5.5 0 0 1 0 1zm0-2.09h-4.13a.5.5 0 1 1 0-1h4.13a.5.5 0 0 1 0 1zm0-2.09h-4.13a.5.5 0 1 1 0-1h4.13a.5.5 0 0 1 0 1zm2.42-8.19a.5.5 0 0 1 -.46.31h-1.38v5.07a.5.5 0 0 1 -.5.5h-4.25a.5.5 0 0 1 -.5-.5v-5.07h-1.42a.5.5 0 0 1 -.36-.85l4-4.27a.52.52 0 0 1 .37-.16.5.5 0 0 1 .36.16l4 4.27a.51.51 0 0 1 .18.54zm.16-10.75a.51.51 0 0 1 -.36.15.49.49 0 0 1 -.35-.15l-.34-.34v3.19a.5.5 0 0 1 -.5.5h-6.18a.5.5 0 0 1 -.5-.5v-3.19l-.35.34a.49.49 0 0 1 -.7-.7l1.53-1.53v-1.7a.5.5 0 0 1 .5-.5.51.51 0 0 1 .5.5v.7l1.77-1.78a.53.53 0 0 1 .36-.15.51.51 0 0 1 .35.15l4.31 4.31a.5.5 0 0 1 0 .7zm10.2 25.21h-4.16a.5.5 0 0 1 0-1h4.16a.5.5 0 0 1 0 1zm0-2h-4.16a.5.5 0 0 1 0-1h4.16a.5.5 0 0 1 0 1zm0-2h-4.16a.5.5 0 1 1 0-1h4.16a.5.5 0 0 1 0 1zm0-2h-4.16a.5.5 0 0 1 0-1h4.16a.5.5 0 0 1 0 1zm0-2h-4.16a.5.5 0 0 1 0-1h4.16a.5.5 0 0 1 0 1zm0-2h-4.16a.5.5 0 0 1 -.5-.5.5.5 0 0 1 .5-.5h4.16a.5.5 0 0 1 .5.5.5.5 0 0 1 -.5.72zm0-2h-4.16a.5.5 0 0 1 -.5-.5.5.5 0 0 1 .5-.5h4.16a.5.5 0 0 1 .5.5.5.5 0 0 1 -.5.72zm2.43-8.3a.51.51 0 0 1 -.46.3h-1.42v5.32a.51.51 0 0 1 -.5.5h-4.26a.51.51 0 0 1 -.5-.5v-5.1h-1.42a.5.5 0 0 1 -.36-.84l4.05-4.28a.51.51 0 0 1 .72 0l4 4.28a.49.49 0 0 1 .15.56zm.15-10.34a.5.5 0 0 1 -.35.15.51.51 0 0 1 -.36-.15l-.34-.14v3.19a.5.5 0 0 1 -.5.5h-6.22a.5.5 0 0 1 -.5-.5v-3.19l-.34.34a.5.5 0 0 1 -.71 0 .51.51 0 0 1 0-.71l1.53-1.52v-1.7a.5.5 0 0 1 .5-.5.5.5 0 0 1 .5.5v.7l1.78-1.78a.48.48 0 0 1 .7 0l4.31 4.3a.5.5 0 0 1 0 .75z"/></g></svg>