<svg clip-rule="evenodd" fill-rule="evenodd" height="512" stroke-linejoin="round" stroke-miterlimit="2" viewBox="0 0 512 512" width="512" xmlns="http://www.w3.org/2000/svg"><path d="m256 32c123.629 0 224 100.371 224 224s-100.371 224-224 224-224-100.371-224-224 100.371-224 224-224zm131.544 138.446c0-3.425-1.361-6.709-3.782-9.131-2.422-2.422-5.707-3.783-9.132-3.783-35.38 0-201.88 0-237.26 0-3.425 0-6.71 1.361-9.132 3.783-2.421 2.422-3.782 5.706-3.782 9.131v171.108c0 3.425 1.361 6.709 3.782 9.131 2.422 2.422 5.707 3.783 9.132 3.783h237.26c3.425 0 6.71-1.361 9.132-3.783 2.421-2.422 3.782-5.706 3.782-9.131zm-12.589 0v171.108c0 .086-.035.168-.095.229-.061.061-.144.095-.23.095-35.38 0-201.88 0-237.26 0-.086 0-.169-.034-.23-.095-.06-.061-.095-.143-.095-.229v-171.108c0-.086.035-.168.095-.229.061-.061.144-.095.23-.095h237.26c.086 0 .169.034.23.095.06.061.095.143.095.229zm-190.882 84.765c-15.189 6.78-26.415 20.885-29.197 37.807-.005.027-.009.054-.013.081-.54 3.574.505 7.206 2.863 9.946 2.357 2.74 5.792 4.316 9.407 4.316l74.754-.072c3.565 0 6.98-1.567 9.324-4.291 2.343-2.724 3.383-6.335 2.846-9.888-.003-.02-.006-.04-.01-.06-2.725-16.937-13.936-31.052-29.129-37.838 5.543-5.352 8.991-12.856 8.991-21.16 0-16.233-13.18-29.413-29.413-29.413-16.234 0-29.414 13.18-29.414 29.413 0 8.304 3.449 15.808 8.991 21.159zm98.333 44.01h59.698c3.474 0 6.295-2.821 6.295-6.295s-2.821-6.295-6.295-6.295h-59.698c-3.474 0-6.295 2.821-6.295 6.295s2.821 6.295 6.295 6.295zm-77.91-35.756c18.583 0 34.039 13.509 37.062 31.235l-6.939.023c-10.046.02-20.092.029-30.137.04l-37.134.009c3.015-17.716 18.506-31.307 37.148-31.307zm77.91-1.17h45.651c3.475 0 6.295-2.821 6.295-6.295s-2.82-6.295-6.295-6.295h-45.651c-3.474 0-6.295 2.821-6.295 6.295s2.821 6.295 6.295 6.295zm-77.91-11.419c-9.286 0-16.824-7.539-16.824-16.824s7.538-16.824 16.824-16.824c9.285 0 16.823 7.539 16.823 16.824s-7.538 16.824-16.823 16.824zm77.91-25.507h59.698c3.474 0 6.295-2.821 6.295-6.295s-2.821-6.295-6.295-6.295h-59.698c-3.474 0-6.295 2.821-6.295 6.295s2.821 6.295 6.295 6.295z"/></svg>