<svg id="Layer_1" height="512" viewBox="0 0 512 512" width="512" xmlns="http://www.w3.org/2000/svg" data-name="Layer 1"><path d="m256 0c141.385 0 256 114.615 256 256s-114.615 256-256 256-256-114.615-256-256 114.615-256 256-256zm0 361.976a51.68 51.68 0 1 0 -51.678-51.682 51.74 51.74 0 0 0 51.678 51.682zm0-123.046a71.366 71.366 0 1 0 71.368 71.364 71.449 71.449 0 0 0 -71.368-71.364zm0 61.523a24.1 24.1 0 0 1 8.97 1.719 9.834 9.834 0 0 1 -3.727-7.714c0-3.309-2.351-6-5.243-6s-5.239 2.69-5.239 6 2.347 5.995 5.239 5.995zm0 19.686a24.206 24.206 0 0 1 -8.971-1.719 9.826 9.826 0 0 1 3.732 7.718c0 3.3 2.347 5.991 5.239 5.991s5.243-2.69 5.243-5.991-2.351-6-5.243-6zm24.929-25.681a25.743 25.743 0 0 0 -15.084-23.593v-1.033a9.845 9.845 0 0 0 -19.69 0v1.033a26.026 26.026 0 0 0 -2.761 45.74 10.057 10.057 0 0 0 -2.478-.312 9.84 9.84 0 0 0 -9.845 9.845 25.754 25.754 0 0 0 15.084 23.593v1.033a9.845 9.845 0 0 0 19.69 0v-1.033a26.03 26.03 0 0 0 2.764-45.744 10.011 10.011 0 0 0 2.479.316 9.844 9.844 0 0 0 9.841-9.845zm-155.237-75.434a10.493 10.493 0 0 0 1.872 7.859l.55.747a10.591 10.591 0 0 0 14.745 2.334l107.36-78a9.827 9.827 0 0 1 11.564 0l107.359 78a10.569 10.569 0 0 0 14.746-2.334l.541-.747a10.6 10.6 0 0 0 -2.33-14.755l-126.099-91.616-126.1 91.616a10.481 10.481 0 0 0 -4.21 6.9zm215.568 174.786a8.412 8.412 0 0 0 8.4-8.4v-145.262l-93.66-68.048-93.661 68.046v145.26a8.41 8.41 0 0 0 8.4 8.4zm-235.012-177.866a30.028 30.028 0 0 0 5.388 22.5l.545.761a30.057 30.057 0 0 0 19.743 12.073 30.7 30.7 0 0 0 4.813.383 30.066 30.066 0 0 0 5.911-.585v134.33a28.127 28.127 0 0 0 28.094 28.094h170.518a28.125 28.125 0 0 0 28.089-28.094v-134.345a30.3 30.3 0 0 0 30.476-11.861l.54-.742a30.29 30.29 0 0 0 -6.693-42.255l-131.889-95.82a9.821 9.821 0 0 0 -11.564 0l-131.889 95.817a30.061 30.061 0 0 0 -12.082 19.744z" fill-rule="evenodd"/></svg>