<svg id="layer_1" fill='#C9B26D' enable-background="new 0 0 32 32" height="512" viewBox="0 0 32 32" width="512" xmlns="http://www.w3.org/2000/svg"><path d="m20.8499756 10h-9.6999512c-.6300049 0-1.1500244.5199585-1.1500244 1.1499634v6.5800171c0 .6400146.5200195 1.1600342 1.1500244 1.1600342h9.6999512c.6300049-.0000001 1.1500244-.5200196 1.1500244-1.1600342v-6.5800171c0-.6300049-.5200195-1.1499634-1.1500244-1.1499634z"/><path d="m16 2c-7.7199707 0-14 6.2799683-14 14 0 7.7199707 6.2800293 14 14 14s14-6.2800293 14-14c0-7.7200317-6.2800293-14-14-14zm8 15.7299805c0 1.7399902-1.4099731 3.1600342-3.1500244 3.1600342h-3.8499756v1.1099853h2.0300293c.5499878 0 1 .4500122 1 1s-.4500122 1-1 1h-6.0600586c-.5499878 0-1-.4500122-1-1s.4500122-1 1-1h2.0300293v-1.1099854h-3.8499756c-1.7400513 0-3.1500244-1.4200439-3.1500244-3.1600341v-6.5800171c0-1.7299805 1.4099731-3.1499634 3.1500244-3.1499634h9.6999512c1.7400513 0 3.1500244 1.4199829 3.1500244 3.1499634z"/></svg>