<svg height="512" viewBox="0 0 176 176" width="512" xmlns="http://www.w3.org/2000/svg"><g id="Layer_2" data-name="Layer 2"><g id="soldier"><path d="m63.72 72.35a2.34 2.34 0 0 1 .28 2.75l-1.24 2.41c-.68 1.35-1.37 2.72-2.06 4.13l-.39.8a1.8 1.8 0 0 0 -.23 1.18 1.36 1.36 0 0 0 .62.61.93.93 0 0 0 .2.1l.52.25c.63.31 1.27.61 1.91.9 1.12.54 2.25 1 3.39 1.52a56.54 56.54 0 0 0 21.09 4.79l2.19-.16c1.56-.11 3.16-.22 4.71-.44a62.21 62.21 0 0 0 18-5.66q1-.47 2.07-1a4.52 4.52 0 0 0 .56-.31c.43-.28.59-.48.63-.62s0-.63-.41-1.55l-.22-.43c-.67-1.35-1.36-2.73-2.06-4.12l-1.28-2.36a2.35 2.35 0 0 1 .27-2.77c1.81-2.23 3.6-4.48 5.4-6.73.81-1 1.63-2 2.45-3.07.52-.66.78-1.24.69-1.56s-.56-.7-1.31-1a76.9 76.9 0 0 1 -23.9-16.1 10.73 10.73 0 0 0 -7.6-3.3 11 11 0 0 0 -7.74 3.39c-1.48 1.46-3 2.83-4.4 4.06a74.71 74.71 0 0 1 -19.59 12c-.62.27-1 .6-1.1.91a1.92 1.92 0 0 0 .58 1.4c2.4 3.06 5.25 6.63 7.97 9.98zm48.2 7.59.1.2.65 1.3.59 1.17-.59.3-.57.29a52.44 52.44 0 0 1 -24.1 6.13 52.55 52.55 0 0 1 -24.08-6.12l-.6-.31-.56-.28.56-1.14c.21-.43.44-.87.65-1.31l.06-.1c.42-.83.85-1.67 1.24-2.53.11-.24.22-.47.32-.71a3.43 3.43 0 0 1 3.54-2.22c12.84.06 25.51 0 38.43 0a2.46 2.46 0 0 1 2.44 1.56c.21.46.43.9.65 1.35.44.79.85 1.59 1.27 2.42zm-51.07-19.44c.88-.45 1.74-.88 2.6-1.33a71.73 71.73 0 0 0 18.23-13.42 8.65 8.65 0 0 1 9.76-2 9.47 9.47 0 0 1 3 2.09 73 73 0 0 0 21.13 14.84c.19.09.37.18.56.29l1.71.89-2.44 3.05c-1.75 2.19-3.56 4.45-5.36 6.64a2.65 2.65 0 0 1 -2 .81h-28.87c-3.64 0-7.27 0-10.9 0a3.15 3.15 0 0 1 -2.67-1.27c-1.52-2-3-3.84-4.64-5.84l-2.74-3.41z"/><path d="m109.07 80.14c-.44-.87-.87-1.75-1.29-2.63a2.4 2.4 0 0 1 -.11-.23c-12.92 0-25.59 0-38.45 0-.61 0-.81.08-.94.3a1.76 1.76 0 0 0 -.16.31c-.33.8-.7 1.57-1.08 2.32l-.55 1.1-.11.2c14.6 7.1 28.83 7.1 43.42 0l-.16-.31c-.23-.4-.4-.73-.57-1.06z"/><path d="m67.65 69.48c.15.21.24.28.61.27h10.91 29c1.73-2.13 3.42-4.23 5.19-6.45l.43-.54a75.13 75.13 0 0 1 -21.24-15.1 6.42 6.42 0 0 0 -4.56-2 5.86 5.86 0 0 0 -2.37.5 6.37 6.37 0 0 0 -2.05 1.44 74.36 74.36 0 0 1 -18.9 13.9l-2.4 1.24.71.88c1.61 2.01 3.13 3.91 4.67 5.86zm11.23-13.89a1.31 1.31 0 0 1 1.06-.89l4.55-.7 2-4.12a1.32 1.32 0 0 1 2.36 0l2 4.12 4.54.66a1.31 1.31 0 0 1 .73 2.24l-3.29 3.21.78 4.52a1.34 1.34 0 0 1 -.46 1.37 1.3 1.3 0 0 1 -.78.25 1.31 1.31 0 0 1 -.61-.15l-4.06-2.18-4.07 2.14a1.32 1.32 0 0 1 -1.91-1.39l.78-4.52-3.29-3.21a1.32 1.32 0 0 1 -.33-1.35z"/><path d="m90.15 94.25-2.15.17h-.13a59.37 59.37 0 0 1 -22.13-5c-.76-.31-1.52-.65-2.26-1 1 8.79 9.82 20.52 24.44 20.58h.08c14.65 0 23.45-11.67 24.54-20.54a63.5 63.5 0 0 1 -17.5 5.32c-1.63.22-3.28.36-4.89.47z"/><path d="m88 0a88.26 88.26 0 0 0 -88 88 88.26 88.26 0 0 0 88 88 88.26 88.26 0 0 0 88-88 88.26 88.26 0 0 0 -88-88zm-35.38 60.37a4.07 4.07 0 0 1 2.61-2.68 72.81 72.81 0 0 0 18.92-11.61c1.38-1.2 2.82-2.52 4.27-3.95 5.58-5.47 13.58-5.51 19.03-.13a74.18 74.18 0 0 0 23.1 15.52 4.4 4.4 0 0 1 2.84 2.8 4.44 4.44 0 0 1 -1.2 3.85l-2.44 3.06q-2.67 3.36-5.37 6.7c1.2 2.34 2.37 4.67 3.49 6.92a4.73 4.73 0 0 1 .56 3.55 4.62 4.62 0 0 1 -2.53 2.46l-.6.29c-.37 10.11-10.3 24.5-27.3 24.5h-.13c-17-.08-26.85-14.52-27.17-24.48l-.4-.17-.53-.25a4 4 0 0 1 -2.16-2.23 4 4 0 0 1 .39-3.23c1.23-2.53 2.47-5 3.67-7.33-2.75-3.4-5.54-6.9-7.94-9.92a4.17 4.17 0 0 1 -1.11-3.67zm81.44 76.28a5.1 5.1 0 0 1 -3.79 1.34h-84.41a4.71 4.71 0 0 1 -5.24-5.29 27.58 27.58 0 0 1 23.32-26.54 6.73 6.73 0 0 1 3.34.56c2.24.89 4.5 1.83 6.68 2.74l2.8 1.17a28.45 28.45 0 0 0 23.19-.28c1.35-.59 2.73-1.15 4.1-1.71 1.6-.66 3.26-1.34 4.86-2a7.92 7.92 0 0 1 5.39 0l.27.06a27.69 27.69 0 0 1 20.81 26.26 5.15 5.15 0 0 1 -1.32 3.69z"/><path d="m85.21 59.91-.44 2.58 2.32-1.22a1.32 1.32 0 0 1 1.22 0l2.32 1.22-.45-2.58a1.31 1.31 0 0 1 .38-1.16l1.88-1.83-2.59-.38a1.3 1.3 0 0 1 -1-.72l-1.15-2.34-1.16 2.34a1.3 1.3 0 0 1 -1 .72l-2.54.38 1.87 1.83a1.31 1.31 0 0 1 .34 1.16z"/><path d="m114 109.16-.27-.07c-1.38-.32-2.56-.61-3.73-.09-1.64.72-3.31 1.41-4.92 2.07-1.36.56-2.72 1.12-4.06 1.69a31.31 31.31 0 0 1 -25.23.3l-2.79-1.17c-2.17-.91-4.42-1.85-6.64-2.72a4.08 4.08 0 0 0 -2-.4 24.9 24.9 0 0 0 -21 24 2.88 2.88 0 0 0 .56 2 2.89 2.89 0 0 0 2 .58h84.41a2.08 2.08 0 0 0 2.48-2.49 25 25 0 0 0 -18.81-23.7z"/></g></g></svg>