<svg fill='#C9B26D' id="Layer_1" height="512" viewBox="0 0 512 512" width="512" xmlns="http://www.w3.org/2000/svg" data-name="Layer 1"><path d="m256 0c141.385 0 256 114.615 256 256s-114.615 256-256 256-256-114.615-256-256 114.615-256 256-256zm64.1 163.318a9.21 9.21 0 0 1 18.42 0 10.158 10.158 0 1 0 20.315 0 29.584 29.584 0 0 0 -19.367-27.729v-6.027a10.156 10.156 0 1 0 -20.311 0v6.027a29.526 29.526 0 0 0 10.158 57.25 9.212 9.212 0 1 1 -9.215 9.21 10.155 10.155 0 0 0 -20.31 0 29.584 29.584 0 0 0 19.367 27.729v6.032a10.156 10.156 0 0 0 20.311 0v-6.032a29.526 29.526 0 0 0 -10.153-57.25 9.224 9.224 0 0 1 -9.215-9.21zm9.215 88.24a68.872 68.872 0 1 0 -68.873-68.872 68.944 68.944 0 0 0 68.873 68.872zm0-158.06a89.186 89.186 0 1 0 89.185 89.188 89.289 89.289 0 0 0 -89.182-89.186zm-134.174 87.102a5.852 5.852 0 0 0 1.089-6.307l-22.193-56.525a5.7 5.7 0 0 0 -3.886-3.632 6.655 6.655 0 0 0 -2-.326 5.787 5.787 0 0 0 -3.27 1.07q-1.83 1.211-3.668 2.471a310.014 310.014 0 0 0 27.287 70.89l6.638-7.637zm29.127 107.127a254 254 0 0 1 -48.09-66.582 19.87 19.87 0 0 1 -1.078-15.145 332.349 332.349 0 0 1 -31.5-75.761c-7.876 6.158-15.336 12.534-21.761 18.656a24.878 24.878 0 0 0 -7.782 21.984c13.459 103.259 123.81 213.605 227.064 227.063a24.845 24.845 0 0 0 21.984-7.776c6.118-6.426 12.489-13.881 18.647-21.753a332.078 332.078 0 0 1 -75.752-31.513 19.892 19.892 0 0 1 -15.15-1.08 254.153 254.153 0 0 1 -66.578-48.09zm113.432 28.042a5.833 5.833 0 0 0 -6.3 1.093l-7.627 6.634a310.276 310.276 0 0 0 70.881 27.29q1.245-1.844 2.466-3.669a6.183 6.183 0 0 0 -2.892-9.155zm-122.561-148.891-22.2-56.529a26.484 26.484 0 0 0 -39.265-12.407 347.225 347.225 0 0 0 -45.846 36.246 45.032 45.032 0 0 0 -13.913 39.312c6.974 53.491 38.208 111.407 85.691 158.894s105.4 78.717 158.894 85.7a50.035 50.035 0 0 0 6.335.413 44.853 44.853 0 0 0 32.976-14.33 346.787 346.787 0 0 0 36.245-45.85 26.486 26.486 0 0 0 -12.406-39.265l-56.525-22.2a26.083 26.083 0 0 0 -27.058 4.67l-18.388 16c-44.626-22.252-82.939-60.556-105.2-105.2l15.994-18.392a26.063 26.063 0 0 0 4.666-27.062z" fill-rule="evenodd"/></svg>