<svg id="Lingkaran_Glyph" height="512" viewBox="0 0 64 64" width="512" xmlns="http://www.w3.org/2000/svg" data-name="Lingkaran Glyph"><path d="m32 0a32 32 0 1 0 32 32 32.004 32.004 0 0 0 -32-32zm11.27 12a3.44 3.44 0 1 1 -3.43 3.44 3.43983 3.43983 0 0 1 3.43-3.44zm-16.49 0a3.44 3.44 0 1 1 -3.44 3.44 3.43771 3.43771 0 0 1 3.44-3.44zm-4.6 10.81a2.087 2.087 0 0 1 2.08-2.09h5.02a2.087 2.087 0 0 1 2.08 2.09v5.7h-9.18zm-3.19 29.19a2.8594 2.8594 0 0 1 -2.86-2.86v-16.35a2.85084 2.85084 0 0 1 2.86-2.85h18.26v7.04a5.5153 5.5153 0 0 0 1.37 3.63 1.21348 1.21348 0 0 1 .3.79v9.89a2.07681 2.07681 0 0 0 .12.71zm28.88-15.02a4.05658 4.05658 0 0 1 -1.01 2.68 2.653 2.653 0 0 0 -.66 1.74v9.89a.71276.71276 0 0 1 -.71.71h-4.43a.71275.71275 0 0 1 -.71-.71v-9.89a2.653 2.653 0 0 0 -.66-1.74 4.05658 4.05658 0 0 1 -1.01-2.68v-14.17a2.087 2.087 0 0 1 2.08-2.09h5.02a2.08907 2.08907 0 0 1 2.09 2.09z" fill="rgb(0,0,0)"/></svg>