<svg id="Glyph" height="512" viewBox="0 0 64 64" width="512" xmlns="http://www.w3.org/2000/svg"><g fill="rgb(0,0,0)"><path d="m32 4a28.03075 28.03075 0 0 0 -28 28c1.537 37.146 54.46871 37.1352 56.00005-.00021a28.03078 28.03078 0 0 0 -28.00005-27.99979zm-19.17 22.07a9.74162 9.74162 0 0 1 5.75009-12.42995.99662.99662 0 1 1 .68991 1.86995 7.73486 7.73486 0 0 0 -4.55992 9.87 1.00171 1.00171 0 0 1 -1.88008.69zm5.47-2.02a1.008 1.008 0 0 1 -.94 1.35c-1.81033-.18187-1.399-3.95967-.76006-5.12991.443-1.28152 3.57718-4.43205 4.59013-2.44018a1.01 1.01 0 0 1 -.6 1.28013 3.86084 3.86084 0 0 0 -2.29007 4.93996zm7.7 23.86h-8.47a2.952 2.952 0 0 1 -2.11-5.01c4.37-4.42 4.46-8.66 4.46-8.7v-5.89a11.778 11.778 0 0 1 8.42-11.27v-2.34a3.7 3.7 0 1 1 7.4 0v2.33994a11.778 11.778 0 0 1 8.42 11.27v5.89006c0 .04.09 4.28 4.46 8.7a2.952 2.952 0 0 1 -2.11 5.01h-8.47c-1.18818 6.72629-10.81421 6.73679-12 0zm19.58-26.8a3.77942 3.77942 0 0 0 -2.17-2 1.00148 1.00148 0 0 1 .69-1.88 5.88393 5.88393 0 0 1 3.47992 7.52 1.00324 1.00324 0 0 1 -1.87992-.70007 3.75685 3.75685 0 0 0 -.12-2.93993zm4.31 5.55a1.0014 1.0014 0 0 1 -.6-1.28 7.73486 7.73486 0 0 0 -4.56008-9.86995.9967.9967 0 1 1 .69008-1.87005 9.70044 9.70044 0 0 1 5.75 12.43 1.00478 1.00478 0 0 1 -1.28.59z"/><path d="m35.97 47.91h-7.93a4.099 4.099 0 0 0 7.93 0z"/><path d="m32.37 16.56a11.71586 11.71586 0 0 1 1.33.08v-1.94a1.7 1.7 0 0 0 -3.4 0v1.94a16.10229 16.10229 0 0 1 2.07-.08z"/><path d="m47.35 45.32a.932.932 0 0 0 -.2-1.01c-4.98-5.04-5.03-9.9-5.03-10.11v-5.89a9.75826 9.75826 0 0 0 -7.62-9.51c-6.20439-1.46714-12.62007 2.7964-12.61994 9.51013l-.00006 5.88987c0 .21-.05 5.06995-5.03 10.11a.932.932 0 0 0 -.2 1.01.9495.9495 0 0 0 .88.59h28.94a.9495.9495 0 0 0 .88-.59z"/></g></svg>