<svg fill='#C9B26D' id="Glyph_Line" height="512" viewBox="0 0 64 64" width="512" xmlns="http://www.w3.org/2000/svg" data-name="Glyph Line"><path d="m28.43 16.99a3.57021 3.57021 0 0 0 7.14 0 3.57021 3.57021 0 0 0 -7.14 0zm15.2 2.2a2.49515 2.49515 0 0 0 0 4.99 2.49515 2.49515 0 0 0 0-4.99zm-15.2-2.2a3.57021 3.57021 0 0 0 7.14 0 3.57021 3.57021 0 0 0 -7.14 0zm15.2 2.2a2.49515 2.49515 0 0 0 0 4.99 2.49515 2.49515 0 0 0 0-4.99zm-25.76 2.49a2.50021 2.50021 0 0 0 5 0 2.50021 2.50021 0 0 0 -5 0zm10.56-4.69a3.57021 3.57021 0 0 0 7.14 0 3.57021 3.57021 0 0 0 -7.14 0zm15.2 2.2a2.49515 2.49515 0 0 0 0 4.99 2.49515 2.49515 0 0 0 0-4.99zm-25.76 2.49a2.50021 2.50021 0 0 0 5 0 2.50021 2.50021 0 0 0 -5 0zm10.56-4.69a3.57021 3.57021 0 0 0 7.14 0 3.57021 3.57021 0 0 0 -7.14 0zm15.2 2.2a2.49515 2.49515 0 0 0 0 4.99 2.49515 2.49515 0 0 0 0-4.99zm-25.76 2.49a2.50021 2.50021 0 0 0 5 0 2.50021 2.50021 0 0 0 -5 0zm10.56-4.69a3.57021 3.57021 0 0 0 7.14 0 3.57021 3.57021 0 0 0 -7.14 0zm15.2 2.2a2.49515 2.49515 0 0 0 0 4.99 2.49515 2.49515 0 0 0 0-4.99zm-25.76 2.49a2.50021 2.50021 0 0 0 5 0 2.50021 2.50021 0 0 0 -5 0zm10.56-4.69a3.57021 3.57021 0 0 0 7.14 0 3.57021 3.57021 0 0 0 -7.14 0zm15.2 2.2a2.49515 2.49515 0 0 0 0 4.99 2.49515 2.49515 0 0 0 0-4.99zm-25.76 2.49a2.50021 2.50021 0 0 0 5 0 2.50021 2.50021 0 0 0 -5 0zm10.56-4.69a3.57021 3.57021 0 0 0 7.14 0 3.57021 3.57021 0 0 0 -7.14 0zm15.2 2.2a2.49515 2.49515 0 0 0 0 4.99 2.49515 2.49515 0 0 0 0-4.99zm-25.76 2.49a2.50021 2.50021 0 0 0 5 0 2.50021 2.50021 0 0 0 -5 0zm10.56-4.69a3.57021 3.57021 0 0 0 7.14 0 3.57021 3.57021 0 0 0 -7.14 0zm15.2 2.2a2.49515 2.49515 0 0 0 0 4.99 2.49515 2.49515 0 0 0 0-4.99zm-25.76 2.49a2.50021 2.50021 0 0 0 5 0 2.50021 2.50021 0 0 0 -5 0zm10.56-4.69a3.57021 3.57021 0 0 0 7.14 0 3.57021 3.57021 0 0 0 -7.14 0zm15.2 2.2a2.49515 2.49515 0 0 0 0 4.99 2.49515 2.49515 0 0 0 0-4.99zm-25.76 2.49a2.50021 2.50021 0 0 0 5 0 2.50021 2.50021 0 0 0 -5 0zm10.56-4.69a3.57021 3.57021 0 0 0 7.14 0 3.57021 3.57021 0 0 0 -7.14 0zm15.2 2.2a2.49515 2.49515 0 0 0 0 4.99 2.49515 2.49515 0 0 0 0-4.99zm-25.76 2.49a2.50021 2.50021 0 0 0 5 0 2.50021 2.50021 0 0 0 -5 0zm10.56-4.69a3.57021 3.57021 0 0 0 7.14 0 3.57021 3.57021 0 0 0 -7.14 0zm15.2 2.2a2.49515 2.49515 0 0 0 0 4.99 2.49515 2.49515 0 0 0 0-4.99zm-25.76 2.49a2.50021 2.50021 0 0 0 5 0 2.50021 2.50021 0 0 0 -5 0zm10.56-4.69a3.57021 3.57021 0 0 0 7.14 0 3.57021 3.57021 0 0 0 -7.14 0zm15.2 2.2a2.49515 2.49515 0 0 0 0 4.99 2.49515 2.49515 0 0 0 0-4.99zm-25.76 2.49a2.50021 2.50021 0 0 0 5 0 2.50021 2.50021 0 0 0 -5 0zm10.56-4.69a3.57021 3.57021 0 0 0 7.14 0 3.57021 3.57021 0 0 0 -7.14 0zm15.2 2.2a2.49515 2.49515 0 0 0 0 4.99 2.49515 2.49515 0 0 0 0-4.99zm-25.76 2.49a2.50021 2.50021 0 0 0 5 0 2.50021 2.50021 0 0 0 -5 0zm10.56-4.69a3.57021 3.57021 0 0 0 7.14 0 3.57021 3.57021 0 0 0 -7.14 0zm15.2 2.2a2.49515 2.49515 0 0 0 0 4.99 2.49515 2.49515 0 0 0 0-4.99zm-25.76 2.49a2.50021 2.50021 0 0 0 5 0 2.50021 2.50021 0 0 0 -5 0zm10.56-4.69a3.57021 3.57021 0 0 0 7.14 0 3.57021 3.57021 0 0 0 -7.14 0zm15.2 2.2a2.49515 2.49515 0 0 0 0 4.99 2.49515 2.49515 0 0 0 0-4.99zm-25.76 2.49a2.50021 2.50021 0 0 0 5 0 2.50021 2.50021 0 0 0 -5 0zm10.56-4.69a3.57021 3.57021 0 0 0 7.14 0 3.57021 3.57021 0 0 0 -7.14 0zm15.2 2.2a2.49515 2.49515 0 0 0 0 4.99 2.49515 2.49515 0 0 0 0-4.99zm-11.63-19.19a32 32 0 1 0 32 32 32.004 32.004 0 0 0 -32-32zm11.63 17.76a3.92513 3.92513 0 0 1 0 7.85 3.92513 3.92513 0 0 1 0-7.85zm-11.63-5.77a4.99514 4.99514 0 0 1 0 9.99 4.99514 4.99514 0 0 1 0-9.99zm-7.7 9.69a3.93018 3.93018 0 0 1 -7.86 0 3.93018 3.93018 0 0 1 7.86 0zm-5.86 29.54a.71507.71507 0 0 1 -1.43 0v-8.36a.62618.62618 0 0 0 -.66-.57 2.05216 2.05216 0 0 1 -2.09-2v-9.3a3.41781 3.41781 0 0 1 3.5-3.32h5.22a.71513.71513 0 0 1 0 1.43h-5.22a1.99075 1.99075 0 0 0 -2.07 1.89v9.3a.62616.62616 0 0 0 .66.57 2.05221 2.05221 0 0 1 2.09 2zm23.26.07a.71513.71513 0 0 1 -1.43 0v-8.36a.627.627 0 0 0 -.66-.58 2.04908 2.04908 0 0 1 -2.06-1.75c-.62.29-1.73-.01-1.78.95v9.67a.715.715 0 0 1 -1.43 0v-9.67a2.264 2.264 0 0 1 2.31-2.2.82844.82844 0 0 0 .87-.77v-10.75a2.4069 2.4069 0 0 0 -2.5-2.3h-6.04a2.4069 2.4069 0 0 0 -2.5 2.3v10.75a.82844.82844 0 0 0 .87.77 2.264 2.264 0 0 1 2.31 2.2v9.67a.71513.71513 0 0 1 -1.43 0v-9.67c-.05-.97-1.16-.66-1.79-.95a2.05393 2.05393 0 0 1 -2.05 1.69.62622.62622 0 0 0 -.66.57v8.36a.71513.71513 0 0 1 -1.43 0v-8.36a2.05221 2.05221 0 0 1 2.09-2 .62616.62616 0 0 0 .66-.57v-12.46a3.83423 3.83423 0 0 1 3.93-3.73h6.04a3.83423 3.83423 0 0 1 3.93 3.73v12.52a.6193.6193 0 0 0 .66.57 2.054 2.054 0 0 1 2.09 2.01zm8.04-10.94a2.05216 2.05216 0 0 1 -2.09 2 .627.627 0 0 0 -.66.58v8.36a.71507.71507 0 0 1 -1.43 0v-8.36a2.054 2.054 0 0 1 2.09-2.01.6193.6193 0 0 0 .66-.57v-9.3a1.99076 1.99076 0 0 0 -2.07-1.89h-5.22a.71513.71513 0 0 1 0-1.43h5.22a3.41781 3.41781 0 0 1 3.5 3.32zm-6.11-16.17a2.49515 2.49515 0 0 0 0-4.99 2.49515 2.49515 0 0 0 0 4.99zm-8.06-7.19a3.57017 3.57017 0 0 0 -7.14 0 3.57017 3.57017 0 0 0 7.14 0zm-12.7 4.69a2.50021 2.50021 0 0 0 -5 0 2.50021 2.50021 0 0 0 5 0zm20.76-2.49a2.49515 2.49515 0 0 0 0 4.99 2.49515 2.49515 0 0 0 0-4.99zm-15.2-2.2a3.57021 3.57021 0 0 0 7.14 0 3.57021 3.57021 0 0 0 -7.14 0zm-10.56 4.69a2.50021 2.50021 0 0 0 5 0 2.50021 2.50021 0 0 0 -5 0zm25.76-2.49a2.49515 2.49515 0 0 0 0 4.99 2.49515 2.49515 0 0 0 0-4.99zm-15.2-2.2a3.57021 3.57021 0 0 0 7.14 0 3.57021 3.57021 0 0 0 -7.14 0zm-10.56 4.69a2.50021 2.50021 0 0 0 5 0 2.50021 2.50021 0 0 0 -5 0zm25.76-2.49a2.49515 2.49515 0 0 0 0 4.99 2.49515 2.49515 0 0 0 0-4.99zm-15.2-2.2a3.57021 3.57021 0 0 0 7.14 0 3.57021 3.57021 0 0 0 -7.14 0zm-10.56 4.69a2.50021 2.50021 0 0 0 5 0 2.50021 2.50021 0 0 0 -5 0zm25.76-2.49a2.49515 2.49515 0 0 0 0 4.99 2.49515 2.49515 0 0 0 0-4.99zm-15.2-2.2a3.57021 3.57021 0 0 0 7.14 0 3.57021 3.57021 0 0 0 -7.14 0zm-10.56 4.69a2.50021 2.50021 0 0 0 5 0 2.50021 2.50021 0 0 0 -5 0zm25.76-2.49a2.49515 2.49515 0 0 0 0 4.99 2.49515 2.49515 0 0 0 0-4.99zm-15.2-2.2a3.57021 3.57021 0 0 0 7.14 0 3.57021 3.57021 0 0 0 -7.14 0zm-10.56 4.69a2.50021 2.50021 0 0 0 5 0 2.50021 2.50021 0 0 0 -5 0zm25.76-2.49a2.49515 2.49515 0 0 0 0 4.99 2.49515 2.49515 0 0 0 0-4.99zm-15.2-2.2a3.57021 3.57021 0 0 0 7.14 0 3.57021 3.57021 0 0 0 -7.14 0zm-10.56 4.69a2.50021 2.50021 0 0 0 5 0 2.50021 2.50021 0 0 0 -5 0zm25.76-2.49a2.49515 2.49515 0 0 0 0 4.99 2.49515 2.49515 0 0 0 0-4.99zm-15.2-2.2a3.57021 3.57021 0 0 0 7.14 0 3.57021 3.57021 0 0 0 -7.14 0zm-10.56 4.69a2.50021 2.50021 0 0 0 5 0 2.50021 2.50021 0 0 0 -5 0zm25.76-2.49a2.49515 2.49515 0 0 0 0 4.99 2.49515 2.49515 0 0 0 0-4.99zm-15.2-2.2a3.57021 3.57021 0 0 0 7.14 0 3.57021 3.57021 0 0 0 -7.14 0zm-10.56 4.69a2.50021 2.50021 0 0 0 5 0 2.50021 2.50021 0 0 0 -5 0zm25.76-2.49a2.49515 2.49515 0 0 0 0 4.99 2.49515 2.49515 0 0 0 0-4.99zm-15.2-2.2a3.57021 3.57021 0 0 0 7.14 0 3.57021 3.57021 0 0 0 -7.14 0zm-10.56 4.69a2.50021 2.50021 0 0 0 5 0 2.50021 2.50021 0 0 0 -5 0zm25.76-2.49a2.49515 2.49515 0 0 0 0 4.99 2.49515 2.49515 0 0 0 0-4.99zm-15.2-2.2a3.57021 3.57021 0 0 0 7.14 0 3.57021 3.57021 0 0 0 -7.14 0zm-10.56 4.69a2.50021 2.50021 0 0 0 5 0 2.50021 2.50021 0 0 0 -5 0zm25.76-2.49a2.49515 2.49515 0 0 0 0 4.99 2.49515 2.49515 0 0 0 0-4.99zm-15.2-2.2a3.57021 3.57021 0 0 0 7.14 0 3.57021 3.57021 0 0 0 -7.14 0zm-10.56 4.69a2.50021 2.50021 0 0 0 5 0 2.50021 2.50021 0 0 0 -5 0zm25.76-2.49a2.49515 2.49515 0 0 0 0 4.99 2.49515 2.49515 0 0 0 0-4.99zm-15.2-2.2a3.57021 3.57021 0 0 0 7.14 0 3.57021 3.57021 0 0 0 -7.14 0zm-10.56 4.69a2.50021 2.50021 0 0 0 5 0 2.50021 2.50021 0 0 0 -5 0zm25.76-2.49a2.49515 2.49515 0 0 0 0 4.99 2.49515 2.49515 0 0 0 0-4.99zm-15.2-2.2a3.57021 3.57021 0 0 0 7.14 0 3.57021 3.57021 0 0 0 -7.14 0zm-10.56 4.69a2.50021 2.50021 0 0 0 5 0 2.50021 2.50021 0 0 0 -5 0zm25.76-2.49a2.49515 2.49515 0 0 0 0 4.99 2.49515 2.49515 0 0 0 0-4.99zm-15.2-2.2a3.57021 3.57021 0 0 0 7.14 0 3.57021 3.57021 0 0 0 -7.14 0zm-10.56 4.69a2.50021 2.50021 0 0 0 5 0 2.50021 2.50021 0 0 0 -5 0zm25.76-2.49a2.49515 2.49515 0 0 0 0 4.99 2.49515 2.49515 0 0 0 0-4.99zm0 0a2.49515 2.49515 0 0 0 0 4.99 2.49515 2.49515 0 0 0 0-4.99z"/></svg>
